<svg xmlns="http://www.w3.org/2000/svg" viewBox="0 0 32 32">
  <path fill="#FDD835" d="M16 0C7.163 0 0 7.163 0 16s7.163 16 16 16 16-7.163 16-16S24.837 0 16 0zm0 29.333C8.636 29.333 2.667 23.364 2.667 16S8.636 2.667 16 2.667 29.333 8.636 29.333 16 23.364 29.333 16 29.333z"/>
  <path fill="#FDD835" d="M16 5.333c-5.891 0-10.667 4.776-10.667 10.667S10.109 26.667 16 26.667 26.667 21.891 26.667 16 21.891 5.333 16 5.333zm0 18.667c-4.418 0-8-3.582-8-8s3.582-8 8-8 8 3.582 8 8-3.582 8-8 8z"/>
  <path fill="#FDD835" d="M16 10.667c-2.945 0-5.333 2.388-5.333 5.333S13.055 21.333 16 21.333 21.333 18.945 21.333 16 18.945 10.667 16 10.667zm0 8c-1.473 0-2.667-1.194-2.667-2.667S14.527 13.333 16 13.333 18.667 14.527 18.667 16 17.473 18.667 16 18.667z"/>
</svg> 